<svg width="26" height="15" viewBox="0 0 26 15" fill="none" xmlns="http://www.w3.org/2000/svg">
<path d="M13.5012 14.0044L25.1169 1.83276C25.3108 1.62967 25.4189 1.35985 25.4189 1.07927C25.4189 0.798683 25.3108 0.528867 25.1169 0.325777L25.1037 0.312672C25.0097 0.213877 24.8966 0.135208 24.7712 0.0814514C24.6457 0.0276937 24.5107 -2.86102e-05 24.3742 -2.86102e-05C24.2377 -2.86102e-05 24.1027 0.0276937 23.9772 0.0814514C23.8518 0.135208 23.7387 0.213877 23.6447 0.312672L12.7072 11.7745L1.77405 0.312672C1.68005 0.213877 1.56689 0.135208 1.44148 0.0814514C1.31606 0.0276937 1.181 -2.86102e-05 1.04452 -2.86102e-05C0.908033 -2.86102e-05 0.772974 0.0276937 0.647558 0.0814514C0.522142 0.135208 0.408991 0.213877 0.314987 0.312672L0.301861 0.325777C0.10795 0.528867 -0.00022316 0.798683 -0.00022316 1.07927C-0.00022316 1.35985 0.10795 1.62967 0.301861 1.83276L11.9175 14.0044C12.0196 14.1114 12.1425 14.1967 12.2786 14.2549C12.4147 14.3131 12.5613 14.3431 12.7094 14.3431C12.8574 14.3431 13.004 14.3131 13.1401 14.2549C13.2762 14.1967 13.3991 14.1114 13.5012 14.0044Z" fill="#333333"/>
</svg>
